# xmcd
# Copyright (C) 1995-1998 Ti Kan
#
# Track frame offsets:
#       150
#       4266
#       5034
#       5821
#       6685
#       7952
#       12138
#       14563
#       16665
#
# Disc length: 237 seconds
#
# Revision: 0
# Processed by: cddbd v1.5.2PL0 Copyright (c) Steve Scherf et al.
# Submitted via: CD-Import v1.0
#
DISCID=5c00eb09
DTITLE=Goodvibes - 
DYEAR=1900
DGENRE=
TTITLE0=Oh Oh It's Only Love
TTITLE1=Real Sound Tekana
TTITLE2=Real Sound Tekana2
TTITLE3=Dodo
TTITLE4=Dodo 2
TTITLE5=Goodvibes Goverment
TTITLE6=Gv Show
TTITLE7=Sunrise
TTITLE8=Fire
EXTD=
EXTT0=
EXTT1=
EXTT2=
EXTT3=
EXTT4=
EXTT5=
EXTT6=
EXTT7=
EXTT8=
PLAYORDER=
